# xmcd
#
# Track frame offsets:
#	150
#	12444
#	24451
#	38049
#	50330
#	62707
#	73648
#	86170
#	98895
#	110993
#	122421
#	133847
#	146049
#	158470
#	170869
#	184338
#	198103
#	210776
#	220336
#	232356
#	244782
#	254546
#	265748
#	277118
#	287553
#
# Disc length: 3990 seconds
#
# Revision: 1
# Processed by: cddbd v1.5.2PL0 Copyright (c) Steve Scherf et al.
# Submitted via: audiograbber 1.83.01
#
DISCID=7f0f9419
DTITLE=Lester Flatt, Earl Scruggs and The Foggy Mountain Boys - Bluegrass Big Thr
DTITLE=ee - CD2
DYEAR=2010
DGENRE=Bluegrass
TTITLE0=Foggy Mountain Breakdown
TTITLE1=My Cabin In Caroline
TTITLE2=Baby Blue Eyes
TTITLE3=Down The Road
TTITLE4=My Little Girl In Tennessee
TTITLE5=Cora Is Gone
TTITLE6=Pike County Breakdown
TTITLE7=Pain In My Heart
TTITLE8=Roll In My Sweat Baby's Arms
TTITLE9=Old Sally Dog Blues
TTITLE10=I'll Just Pretend
TTITLE11=Come Back, Darling
TTITLE12=Jimmie Brown, The Newsboy
TTITLE13=Don't Get Above Your Raisin'
TTITLE14='Tis Sweet To Be Remembered
TTITLE15=Earl's Breakdown
TTITLE16=Flint Hill Special
TTITLE17=Foggy Mountain Special
TTITLE18=I'm Gonna Sleep With One Eye Open
TTITLE19=Six White Horses
TTITLE20=Don't Let Your Deal Go Down
TTITLE21=Big Black Train
TTITLE22=Cabin On The Hill
TTITLE23=Foggy Mountain Rock
TTITLE24=Cryin My Heart Out
EXTD=CD 2 der Zusammenstellung Bluegrass Big Three
EXTT0=
EXTT1=
EXTT2=
EXTT3=
EXTT4=
EXTT5=
EXTT6=
EXTT7=
EXTT8=
EXTT9=
EXTT10=
EXTT11=
EXTT12=
EXTT13=
EXTT14=
EXTT15=
EXTT16=
EXTT17=
EXTT18=
EXTT19=
EXTT20=
EXTT21=
EXTT22=
EXTT23=
EXTT24=
PLAYORDER=
